# xmcd
#
# Track frame offsets:
#	150
#	16437
#	41276
#	66501
#	86026
#	109347
#	126669
#	144975
#	164851
#	183896
#	201666
#	215623
#
# Disc length: 3201 seconds
#
# Revision: 1
# Processed by: cddbd v1.5.2PL0 Copyright (c) Steve Scherf et al.
# Submitted via: audiograbber 1.83.01
#
DISCID=c00c7f0c
DTITLE=Nessi Tausendschön - Knietief im Paradies
DYEAR=2016
DGENRE=deutsch
TTITLE0=Willkommen to Germany
TTITLE1=Knietief im Paradies
TTITLE2=Sehnsucht nach Sehnsucht
TTITLE3=Norway
TTITLE4=The Cave
TTITLE5=Hip Hop: 50 ist das neue 30
TTITLE6=Armes Mädchen
TTITLE7=Das tut weh
TTITLE8=Die neue deutsche Leichtigkeit
TTITLE9=Herrin der Süchte
TTITLE10=Ich hab mein Körper
TTITLE11=Mitternacht
EXTD=
EXTT0=
EXTT1=
EXTT2=
EXTT3=
EXTT4=
EXTT5=
EXTT6=
EXTT7=
EXTT8=
EXTT9=
EXTT10=
EXTT11=
PLAYORDER=
